<?xml version="1.0" encoding="UTF-8" standalone="no"?>
<!-- Created with Inkscape (http://www.inkscape.org/) -->

<svg
   width="512"
   height="315"
   viewBox="0 0 512.00001 314.99999"
   version="1.1"
   id="svg1"
   sodipodi:docname="UncommonModels_with_text.svg"
   inkscape:version="1.4 (e7c3feb100, 2024-10-09)"
   inkscape:export-filename="UncommonModels.png"
   inkscape:export-xdpi="96"
   inkscape:export-ydpi="96"
   xmlns:inkscape="http://www.inkscape.org/namespaces/inkscape"
   xmlns:sodipodi="http://sodipodi.sourceforge.net/DTD/sodipodi-0.dtd"
   xmlns="http://www.w3.org/2000/svg"
   xmlns:svg="http://www.w3.org/2000/svg">
  <sodipodi:namedview
     id="namedview1"
     pagecolor="#010101"
     bordercolor="#000000"
     borderopacity="0.25"
     inkscape:showpageshadow="2"
     inkscape:pageopacity="0.0"
     inkscape:pagecheckerboard="true"
     inkscape:deskcolor="#d1d1d1"
     inkscape:document-units="px"
     inkscape:zoom="0.7526823"
     inkscape:cx="-236.48756"
     inkscape:cy="325.50254"
     inkscape:window-width="3440"
     inkscape:window-height="1371"
     inkscape:window-x="0"
     inkscape:window-y="32"
     inkscape:window-maximized="1"
     inkscape:current-layer="layer1"
     showgrid="false" />
  <defs
     id="defs1" />
  <g
     inkscape:label="Layer 1"
     inkscape:groupmode="layer"
     id="layer1"
     transform="translate(0,-39.735816)">
    <g
       id="g21"
       style="fill:#ffffff;fill-opacity:1"
       transform="matrix(1.6,0,0,1.6,0,-155.47668)">
      <g
         id="g20"
         style="fill:#ffffff;fill-opacity:1">
        <path
           id="path1"
           style="fill:#ffffff;fill-opacity:1;stroke-width:21.4067;stroke-linecap:square;stroke-linejoin:round;paint-order:markers stroke fill"
           d="m 0,162.00781 v 64 a 64,64 0 0 0 32,55.42578 64,64 0 0 0 64,0 v 8.57422 h 32 v -64 a 32,32 0 0 1 16,-27.71289 32,32 0 0 1 32,0 32,32 0 0 1 16,27.71289 v 64 h 32 v -64 a 32,32 0 0 1 16,-27.71289 32,32 0 0 1 32,0 32,32 0 0 1 16,27.71289 v 64 h 32 v -64 a 64,64 0 0 0 -32,-55.42578 64,64 0 0 0 -64,0 A 64,64 0 0 0 208.08789,183.7832 64,64 0 0 0 192,170.58203 a 64,64 0 0 0 -64,0 v -8.57422 H 96 v 59.98438 4.01562 a 32,32 0 0 1 -16,27.71289 32,32 0 0 1 -32,0 32,32 0 0 1 -16,-27.71289 v -64 z" />
        <path
           id="path1-6-7"
           style="fill:#ffffff;fill-opacity:1;stroke-width:21.4067;stroke-linecap:square;stroke-linejoin:round;paint-order:markers stroke fill"
           d="m 64,162.00781 a 64,64 0 0 0 -24,4.75391 v 8.76367 a 55.999865,55.999865 0 0 1 48,0.0117 v -8.82422 a 64,64 0 0 0 -24,-4.70508 z" />
        <path
           id="rect1-2"
           style="fill:#ffffff;fill-opacity:1;stroke-width:24.4779;stroke-linecap:square;stroke-linejoin:round;paint-order:markers stroke fill"
           d="m 122.00781,0 h 32 v -8 h -24 v -304 h 51.06641 a 71.999825,72 0 0 1 12.1875,-8 h -71.25391 v 312 0.6582031 z"
           transform="rotate(90)" />
        <path
           id="rect1-2-5-2"
           style="fill:#ffffff;fill-opacity:1;stroke-width:11.8599;stroke-linecap:square;stroke-linejoin:round;paint-order:markers stroke fill"
           d="m 132,138.00781 a 4,4 0 0 0 -4,4 v 12.27539 h 8 v -12.27539 a 4,4 0 0 0 -4,-4 z m 14,0 a 4,4 0 0 0 -4,4 v 14.32617 a 72,71.999825 0 0 1 8,-1.59179 v -12.73438 a 4,4 0 0 0 -4,-4 z m 14,0 a 4,4 0 0 0 -4,4 v 12.26172 a 72,71.999825 0 0 1 4,-0.26172 72,71.999825 0 0 1 4,0.26172 v -12.26172 a 4,4 0 0 0 -4,-4 z m 14,0 a 4,4 0 0 0 -4,4 v 12.73438 a 72,71.999825 0 0 1 8,1.59179 v -14.32617 a 4,4 0 0 0 -4,-4 z m 14,0 a 4,4 0 0 0 -4,4 v 16.27539 a 72,71.999825 0 0 1 8,3.39844 v -19.67383 a 4,4 0 0 0 -4,-4 z" />
        <path
           id="rect1-2-5-2-3"
           style="fill:#ffffff;fill-opacity:1;stroke-width:11.8599;stroke-linecap:square;stroke-linejoin:round;paint-order:markers stroke fill"
           d="m 36,138.33398 a 4,4 0 0 0 -4,4 v 12.2754 h 8 v -12.2754 a 4,4 0 0 0 -4,-4 z m 14,0 A 4,4 0 0 0 46.195312,141.09766 4,4 0 0 0 46,142.33398 v 14.32618 A 72,71.999825 0 0 1 49.976562,155.75 72,71.999825 0 0 1 54,155.06836 v -12.73438 a 4,4 0 0 0 -4,-4 z m 14,0 A 4,4 0 0 0 60.195312,141.09766 4,4 0 0 0 60,142.33398 v 12.26172 a 72,71.999825 0 0 1 4,-0.26172 72,71.999825 0 0 1 4,0.26172 v -12.26172 a 4,4 0 0 0 -4,-4 z m 14,0 A 4,4 0 0 0 74.195312,141.09766 4,4 0 0 0 74,142.33398 v 12.73438 a 72,71.999825 0 0 1 8,1.5918 v -14.32618 a 4,4 0 0 0 -4,-4 z m 14,0 A 4,4 0 0 0 88.195312,141.09766 4,4 0 0 0 88,142.33398 v 12.2754 h 8 v -12.2754 a 4,4 0 0 0 -4,-4 z" />
        <path
           id="rect1-2-5-2-9"
           style="fill:#ffffff;fill-opacity:1;stroke-width:11.8599;stroke-linecap:square;stroke-linejoin:round;paint-order:markers stroke fill"
           d="m 228,138.00781 a 4,4 0 0 0 -4,4 v 19.67383 a 72,71.999825 0 0 1 8,-3.39844 v -16.27539 a 4,4 0 0 0 -4,-4 z m 14,0 a 4,4 0 0 0 -4,4 v 14.32617 a 72,71.999825 0 0 1 8,-1.59179 v -12.73438 a 4,4 0 0 0 -4,-4 z m 14,0 a 4,4 0 0 0 -4,4 v 12.26172 a 72,71.999825 0 0 1 4,-0.26172 72,71.999825 0 0 1 4,0.26172 v -12.26172 a 4,4 0 0 0 -4,-4 z m 14,0 a 4,4 0 0 0 -4,4 v 12.73438 a 72,71.999825 0 0 1 8,1.59179 v -14.32617 a 4,4 0 0 0 -4,-4 z m 14,0 a 4,4 0 0 0 -4,4 v 16.27539 a 72,71.999825 0 0 1 8,3.39844 v -19.67383 a 4,4 0 0 0 -4,-4 z" />
      </g>
    </g>
    <path
       style="font-weight:bold;font-size:50.038px;line-height:56.71px;font-family:'League Spartan';-inkscape-font-specification:'League Spartan Bold';text-align:center;letter-spacing:0.523542px;text-anchor:middle;fill:#ffffff;stroke-width:3.12738;stroke-linecap:round;stroke-linejoin:round;paint-order:fill markers stroke"
       d="m 19.139575,331.84992 h 7.480681 v 20.29041 q 0,4.0781 -1.601216,7.08038 -1.601216,2.97726 -4.578477,4.62851 -2.977261,1.62624 -7.105396,1.62624 -4.1531535,0 -7.1554334,-1.62624 Q 3.1774538,362.19797 1.5762378,359.22071 4.0869108e-5,356.21843 4.0869108e-5,352.14033 V 331.84992 H 7.4557026 v 19.89011 q 0,2.25171 0.700532,3.80288 0.7255509,1.55118 2.0515584,2.35179 1.326006,0.77559 3.127374,0.77559 1.776349,0 3.077337,-0.77559 1.300988,-0.80061 2.00152,-2.35179 0.725551,-1.55117 0.725551,-3.80288 z m 20.213463,6.85521 0.550418,0.10007 v 26.0698 h -7.480681 v -33.02508 h 10.207751 l 13.385165,26.01976 -0.550418,0.10008 v -26.11984 h 7.480681 V 364.875 h -10.25779 z m 47.259014,19.3647 q 2.301747,0 4.178172,-0.67551 1.901444,-0.67551 2.827147,-1.32601 l 3.202432,6.35483 q -1.175893,1.00076 -4.028059,2.02654 -2.827147,1.02578 -6.73011,1.02578 -3.652774,0 -6.855206,-1.27597 -3.202432,-1.27597 -5.654294,-3.57772 -2.426843,-2.32677 -3.827907,-5.42912 -1.376045,-3.12738 -1.376045,-6.78015 0,-3.65278 1.376045,-6.78015 1.376045,-3.15239 3.802888,-5.47916 2.451862,-2.32677 5.654294,-3.60274 3.227451,-1.30098 6.880225,-1.30098 3.902963,0 6.73011,1.02577 2.852166,1.02578 4.028059,2.02654 l -3.202432,6.35483 q -0.925703,-0.67551 -2.827147,-1.32601 -1.876425,-0.67551 -4.178172,-0.67551 -2.551938,0 -4.453382,0.80061 -1.901444,0.77559 -3.177413,2.15163 -1.275969,1.37605 -1.901444,3.10236 -0.625475,1.72631 -0.625475,3.62775 0,1.92646 0.625475,3.67779 0.625475,1.72632 1.901444,3.10236 1.275969,1.37605 3.177413,2.17665 1.901444,0.77559 4.453382,0.77559 z m 22.014898,-9.73239 q 0,2.82715 1.15088,5.1289 1.17589,2.27673 3.22745,3.62775 2.07658,1.35103 4.80365,1.35103 2.72707,0 4.77862,-1.35103 2.07658,-1.35102 3.22746,-3.62775 1.17589,-2.30175 1.17589,-5.1289 0,-2.82715 -1.17589,-5.10387 -1.15088,-2.27673 -3.22746,-3.62776 -2.05155,-1.37604 -4.77862,-1.37604 -2.72707,0 -4.80365,1.37604 -2.05156,1.35103 -3.22745,3.62776 -1.15088,2.27672 -1.15088,5.10387 z m -7.78091,0 q 0,-3.60273 1.27597,-6.70509 1.27597,-3.12738 3.57772,-5.45414 2.30175,-2.32677 5.4041,-3.62776 3.10236,-1.30098 6.7051,-1.30098 3.65277,0 6.73011,1.30098 3.10235,1.30099 5.37908,3.62776 2.30175,2.32676 3.5527,5.45414 1.27597,3.10236 1.27597,6.70509 0,3.62776 -1.22593,6.75513 -1.22593,3.10236 -3.50266,5.45414 -2.27673,2.32677 -5.37909,3.62776 -3.10235,1.30099 -6.83018,1.30099 -3.80289,0 -6.93027,-1.30099 -3.10235,-1.30099 -5.35406,-3.62776 -2.25171,-2.35178 -3.47764,-5.45414 -1.20092,-3.12737 -1.20092,-6.75513 z m 73.87927,-16.48752 V 364.875 h -7.45566 v -19.43976 l 0.32525,-5.5292 -1.27597,6.32981 -5.55422,15.98714 h -7.33057 l -5.5292,-15.98714 -1.25095,-6.32981 0.32525,5.5292 V 364.875 h -7.48068 v -33.02508 h 10.50798 l 6.65505,22.04174 0.45035,2.62699 0.45034,-2.62699 6.65505,-22.04174 z m 41.6548,0 V 364.875 h -7.45566 v -19.43976 l 0.32525,-5.5292 -1.27597,6.32981 -5.55422,15.98714 h -7.33057 l -5.5292,-15.98714 -1.25095,-6.32981 0.32525,5.5292 V 364.875 h -7.48068 v -33.02508 h 10.50798 l 6.65505,22.04174 0.45035,2.62699 0.45034,-2.62699 6.65505,-22.04174 z m 13.20822,16.48752 q 0,2.82715 1.15087,5.1289 1.17589,2.27673 3.22745,3.62775 2.07658,1.35103 4.80365,1.35103 2.72707,0 4.77863,-1.35103 2.07657,-1.35102 3.22745,-3.62775 1.17589,-2.30175 1.17589,-5.1289 0,-2.82715 -1.17589,-5.10387 -1.15088,-2.27673 -3.22745,-3.62776 -2.05156,-1.37604 -4.77863,-1.37604 -2.72707,0 -4.80365,1.37604 -2.05156,1.35103 -3.22745,3.62776 -1.15087,2.27672 -1.15087,5.10387 z m -7.78091,0 q 0,-3.60273 1.27597,-6.70509 1.27596,-3.12738 3.57771,-5.45414 2.30175,-2.32677 5.40411,-3.62776 3.10235,-1.30098 6.70509,-1.30098 3.65277,0 6.73011,1.30098 3.10235,1.30099 5.37908,3.62776 2.30175,2.32676 3.5527,5.45414 1.27597,3.10236 1.27597,6.70509 0,3.62776 -1.22593,6.75513 -1.22593,3.10236 -3.50266,5.45414 -2.27673,2.32677 -5.37908,3.62776 -3.10236,1.30099 -6.83019,1.30099 -3.80289,0 -6.93026,-1.30099 -3.10236,-1.30099 -5.35407,-3.62776 -2.25171,-2.35178 -3.47764,-5.45414 -1.20091,-3.12737 -1.20091,-6.75513 z m 45.63282,-9.63231 0.55042,0.10007 v 26.0698 h -7.48068 v -33.02508 h 10.20775 l 13.38516,26.01976 -0.55041,0.10008 v -26.11984 h 7.48068 V 364.875 h -10.25779 z m 78.73101,-6.85521 V 364.875 h -7.45566 v -19.43976 l 0.32524,-5.5292 -1.27596,6.32981 -5.55422,15.98714 h -7.33057 l -5.5292,-15.98714 -1.25095,-6.32981 0.32525,5.5292 V 364.875 h -7.48068 v -33.02508 h 10.50798 l 6.65505,22.04174 0.45034,2.62699 0.45035,-2.62699 6.65505,-22.04174 z m 13.20821,16.48752 q 0,2.82715 1.15088,5.1289 1.17589,2.27673 3.22745,3.62775 2.07658,1.35103 4.80365,1.35103 2.72707,0 4.77862,-1.35103 2.07658,-1.35102 3.22746,-3.62775 1.17589,-2.30175 1.17589,-5.1289 0,-2.82715 -1.17589,-5.10387 -1.15088,-2.27673 -3.22746,-3.62776 -2.05155,-1.37604 -4.77862,-1.37604 -2.72707,0 -4.80365,1.37604 -2.05156,1.35103 -3.22745,3.62776 -1.15088,2.27672 -1.15088,5.10387 z m -7.78091,0 q 0,-3.60273 1.27597,-6.70509 1.27597,-3.12738 3.57772,-5.45414 2.30175,-2.32677 5.4041,-3.62776 3.10236,-1.30098 6.7051,-1.30098 3.65277,0 6.73011,1.30098 3.10235,1.30099 5.37908,3.62776 2.30175,2.32676 3.5527,5.45414 1.27597,3.10236 1.27597,6.70509 0,3.62776 -1.22593,6.75513 -1.22593,3.10236 -3.50266,5.45414 -2.27673,2.32677 -5.37909,3.62776 -3.10235,1.30099 -6.83018,1.30099 -3.80289,0 -6.93027,-1.30099 -3.10235,-1.30099 -5.35406,-3.62776 -2.25171,-2.35178 -3.47764,-5.45414 -1.20092,-3.12737 -1.20092,-6.75513 z m 38.77762,-16.48752 h 9.93255 q 5.279,0 8.73163,2.12662 3.47764,2.10159 5.20395,5.82942 1.72631,3.72783 1.72631,8.53148 0,4.82867 -1.72631,8.5565 -1.72631,3.72783 -5.20395,5.85445 -3.45263,2.12661 -8.73163,2.12661 h -9.93255 z m 7.45567,6.63004 v 19.76501 h 1.80136 q 2.82715,0 4.67856,-1.27597 1.8514,-1.30099 2.7771,-3.52768 0.95073,-2.25171 0.95073,-5.05384 0,-2.82715 -0.92571,-5.05384 -0.90068,-2.25171 -2.77711,-3.5527 -1.87642,-1.30098 -4.70357,-1.30098 z m 23.04063,-6.63004 h 21.09101 v 6.55498 h -13.63535 v 6.73011 h 13.51026 v 6.35483 h -13.51026 v 6.83018 h 13.63535 v 6.55498 h -21.09101 z m 27.46901,0 h 7.48068 v 26.4701 h 11.9841 v 6.55498 h -19.46478 z m 36.87616,-0.60045 q 3.07734,0 5.37909,0.67551 2.30174,0.67551 3.70281,1.42608 1.40106,0.75057 1.70129,1.00076 l -3.60274,6.02958 q -0.4003,-0.30023 -1.37604,-0.87567 -0.95072,-0.57543 -2.27673,-1.02577 -1.30099,-0.45035 -2.72707,-0.45035 -1.92646,0 -3.12738,0.70054 -1.17589,0.67551 -1.17589,2.02653 0,0.92571 0.62548,1.67628 0.65049,0.72555 1.95148,1.40106 1.326,0.6505 3.35254,1.42608 1.85141,0.67552 3.47764,1.60122 1.62624,0.9257 2.85217,2.20167 1.25095,1.25095 1.9765,2.90221 0.72555,1.65125 0.72555,3.75285 0,2.5019 -1.02578,4.3533 -1.02578,1.82639 -2.80212,3.0273 -1.75133,1.20091 -4.00304,1.77635 -2.2267,0.60046 -4.62852,0.60046 -3.40258,0 -6.10464,-0.77559 -2.67703,-0.77559 -4.32828,-1.67628 -1.65126,-0.90068 -1.9765,-1.20091 l 3.72783,-6.27977 q 0.30023,0.22517 1.15087,0.72555 0.87567,0.50038 2.12662,1.0508 1.25095,0.5254 2.65201,0.90069 1.42608,0.37528 2.80213,0.37528 2.30175,0 3.45262,-0.87566 1.15087,-0.90069 1.15087,-2.35179 0,-1.07582 -0.72555,-1.92646 -0.72555,-0.85065 -2.17665,-1.60122 -1.4511,-0.77559 -3.62775,-1.62623 -2.17666,-0.87567 -4.0781,-2.12662 -1.87643,-1.25095 -3.05232,-3.12737 -1.17589,-1.87643 -1.17589,-4.65354 0,-2.77711 1.55118,-4.80364 1.57619,-2.05156 4.12813,-3.1524 2.57696,-1.10083 5.50418,-1.10083 z"
       id="text1"
       transform="scale(1.0308522,0.97007113)"
       aria-label="UNCOMMON MODELS" />
  </g>
</svg>
